<svg width="136" height="121" viewBox="0 0 136 121" fill="none" xmlns="http://www.w3.org/2000/svg">
<path d="M114.255 7C121.133 12.7561 126.647 19.9542 130.403 28.0793C134.158 36.2045 136.062 45.0558 135.978 54L77.1101 53.4779C76.2632 53.4704 75.8089 52.4794 76.3558 51.8325L114.255 7Z" fill="#E786D7"/>
<path d="M102.468 35.6H103.668V44H102.288V37.076L100.596 37.556L100.26 36.38L102.468 35.6ZM111.324 41.204V42.488H110.364V44H108.972V42.488H104.844V41.204L107.736 35.6H109.236L106.344 41.204H108.972V39.02H110.364V41.204H111.324ZM114.892 38.732C114.524 39.1 114.06 39.284 113.5 39.284C112.94 39.284 112.472 39.1 112.096 38.732C111.72 38.356 111.532 37.9 111.532 37.364C111.532 36.828 111.72 36.376 112.096 36.008C112.472 35.632 112.94 35.444 113.5 35.444C114.06 35.444 114.524 35.628 114.892 35.996C115.268 36.364 115.456 36.82 115.456 37.364C115.456 37.9 115.268 38.356 114.892 38.732ZM113.488 38.228C113.744 38.228 113.952 38.144 114.112 37.976C114.272 37.808 114.352 37.604 114.352 37.364C114.352 37.116 114.272 36.908 114.112 36.74C113.952 36.572 113.744 36.488 113.488 36.488C113.24 36.488 113.036 36.572 112.876 36.74C112.716 36.908 112.636 37.116 112.636 37.364C112.636 37.604 112.716 37.808 112.876 37.976C113.036 38.144 113.24 38.228 113.488 38.228ZM112.24 42.764L117.772 36.608L118.42 36.98L112.888 43.148L112.24 42.764ZM117.34 44.144C116.78 44.144 116.312 43.96 115.936 43.592C115.56 43.216 115.372 42.76 115.372 42.224C115.372 41.688 115.56 41.236 115.936 40.868C116.312 40.492 116.78 40.304 117.34 40.304C117.892 40.304 118.356 40.492 118.732 40.868C119.108 41.236 119.296 41.688 119.296 42.224C119.296 42.76 119.108 43.216 118.732 43.592C118.356 43.96 117.892 44.144 117.34 44.144ZM117.328 43.088C117.584 43.088 117.792 43.004 117.952 42.836C118.112 42.668 118.192 42.464 118.192 42.224C118.192 41.976 118.112 41.768 117.952 41.6C117.792 41.432 117.584 41.348 117.328 41.348C117.08 41.348 116.876 41.432 116.716 41.6C116.556 41.768 116.476 41.976 116.476 42.224C116.476 42.464 116.556 42.668 116.716 42.836C116.876 43.004 117.08 43.088 117.328 43.088Z" fill="#FDFDFF"/>
<path d="M121 60.5C121 74.2524 116.315 87.5944 107.716 98.3272C99.1175 109.06 87.1189 116.543 73.6977 119.543C60.2765 122.543 46.2337 120.881 33.8837 114.831C21.5337 108.78 11.6134 98.7032 5.75797 86.2597C-0.097515 73.8161 -1.53881 59.749 1.67162 46.3766C4.88205 33.0042 12.5526 21.1246 23.4191 12.6956C34.2856 4.26669 47.6996 -0.208547 61.4503 0.00746358C75.201 0.223474 88.4678 5.11785 99.0641 13.8839L60.5 60.5H121Z" fill="#7F7FD5"/>
<path d="M26.5838 69.632C27.4078 70.088 27.8198 70.768 27.8198 71.672C27.8198 72.44 27.5518 73.048 27.0158 73.496C26.4798 73.936 25.7678 74.156 24.8798 74.156C23.9918 74.156 23.2758 73.936 22.7318 73.496C22.1958 73.048 21.9278 72.44 21.9278 71.672C21.9278 71.24 22.0358 70.848 22.2518 70.496C22.4678 70.136 22.7718 69.848 23.1638 69.632C22.5318 69.216 22.2158 68.624 22.2158 67.856C22.2158 67.088 22.4718 66.496 22.9838 66.08C23.4958 65.656 24.1278 65.444 24.8798 65.444C25.6238 65.444 26.2518 65.656 26.7638 66.08C27.2838 66.496 27.5438 67.088 27.5438 67.856C27.5438 68.624 27.2238 69.216 26.5838 69.632ZM24.8798 66.752C24.5038 66.752 24.1958 66.852 23.9558 67.052C23.7158 67.252 23.5958 67.54 23.5958 67.916C23.5958 68.276 23.7158 68.56 23.9558 68.768C24.2038 68.976 24.5118 69.08 24.8798 69.08C25.2398 69.08 25.5438 68.976 25.7918 68.768C26.0398 68.56 26.1638 68.276 26.1638 67.916C26.1638 67.54 26.0398 67.252 25.7918 67.052C25.5518 66.852 25.2478 66.752 24.8798 66.752ZM24.8798 72.848C25.3438 72.848 25.7198 72.736 26.0078 72.512C26.2958 72.28 26.4398 71.956 26.4398 71.54C26.4398 71.124 26.2958 70.804 26.0078 70.58C25.7198 70.348 25.3438 70.232 24.8798 70.232C24.4078 70.232 24.0278 70.348 23.7398 70.58C23.4518 70.804 23.3078 71.124 23.3078 71.54C23.3078 71.956 23.4518 72.28 23.7398 72.512C24.0278 72.736 24.4078 72.848 24.8798 72.848ZM31.6276 68.42C32.4996 68.42 33.2116 68.688 33.7636 69.224C34.3156 69.752 34.5916 70.44 34.5916 71.288C34.5916 72.136 34.3156 72.828 33.7636 73.364C33.2116 73.892 32.4996 74.156 31.6276 74.156C30.7476 74.156 30.0316 73.892 29.4796 73.364C28.9276 72.828 28.6516 72.136 28.6516 71.288C28.6516 70.648 28.8196 70.084 29.1556 69.596L31.8196 65.6H33.3916L31.4716 68.42H31.6276ZM31.6276 72.848C32.0916 72.848 32.4716 72.708 32.7676 72.428C33.0636 72.14 33.2116 71.76 33.2116 71.288C33.2116 70.816 33.0636 70.44 32.7676 70.16C32.4716 69.872 32.0916 69.728 31.6276 69.728C31.1556 69.728 30.7716 69.872 30.4756 70.16C30.1796 70.44 30.0316 70.816 30.0316 71.288C30.0316 71.76 30.1796 72.14 30.4756 72.428C30.7716 72.708 31.1556 72.848 31.6276 72.848ZM38.4873 68.732C38.1193 69.1 37.6553 69.284 37.0953 69.284C36.5353 69.284 36.0673 69.1 35.6913 68.732C35.3153 68.356 35.1273 67.9 35.1273 67.364C35.1273 66.828 35.3153 66.376 35.6913 66.008C36.0673 65.632 36.5353 65.444 37.0953 65.444C37.6553 65.444 38.1193 65.628 38.4873 65.996C38.8633 66.364 39.0513 66.82 39.0513 67.364C39.0513 67.9 38.8633 68.356 38.4873 68.732ZM37.0833 68.228C37.3393 68.228 37.5473 68.144 37.7073 67.976C37.8673 67.808 37.9473 67.604 37.9473 67.364C37.9473 67.116 37.8673 66.908 37.7073 66.74C37.5473 66.572 37.3393 66.488 37.0833 66.488C36.8353 66.488 36.6313 66.572 36.4713 66.74C36.3113 66.908 36.2313 67.116 36.2313 67.364C36.2313 67.604 36.3113 67.808 36.4713 67.976C36.6313 68.144 36.8353 68.228 37.0833 68.228ZM35.8353 72.764L41.3673 66.608L42.0153 66.98L36.4833 73.148L35.8353 72.764ZM40.9353 74.144C40.3753 74.144 39.9073 73.96 39.5313 73.592C39.1553 73.216 38.9673 72.76 38.9673 72.224C38.9673 71.688 39.1553 71.236 39.5313 70.868C39.9073 70.492 40.3753 70.304 40.9353 70.304C41.4873 70.304 41.9513 70.492 42.3273 70.868C42.7033 71.236 42.8913 71.688 42.8913 72.224C42.8913 72.76 42.7033 73.216 42.3273 73.592C41.9513 73.96 41.4873 74.144 40.9353 74.144ZM40.9233 73.088C41.1793 73.088 41.3873 73.004 41.5473 72.836C41.7073 72.668 41.7873 72.464 41.7873 72.224C41.7873 71.976 41.7073 71.768 41.5473 71.6C41.3873 71.432 41.1793 71.348 40.9233 71.348C40.6753 71.348 40.4713 71.432 40.3113 71.6C40.1513 71.768 40.0713 71.976 40.0713 72.224C40.0713 72.464 40.1513 72.668 40.3113 72.836C40.4713 73.004 40.6753 73.088 40.9233 73.088Z" fill="#FDFDFF"/>
</svg>
