<svg width="631" height="167" viewBox="0 0 631 167" fill="none" xmlns="http://www.w3.org/2000/svg">
<path d="M61.405 11L61.4028 128.996M630.998 129.01L60.9978 129" stroke="#EBEBEB"/>
<path d="M35.1133 130.968C34.5453 131.76 33.7493 132.156 32.7253 132.156C31.7013 132.156 30.9053 131.76 30.3373 130.968C29.7693 130.176 29.4853 129.12 29.4853 127.8C29.4853 126.48 29.7693 125.424 30.3373 124.632C30.9053 123.84 31.7013 123.444 32.7253 123.444C33.7493 123.444 34.5453 123.84 35.1133 124.632C35.6813 125.424 35.9653 126.48 35.9653 127.8C35.9653 129.12 35.6813 130.176 35.1133 130.968ZM31.1533 130.212C31.5213 130.78 32.0453 131.064 32.7253 131.064C33.4053 131.064 33.9293 130.78 34.2973 130.212C34.6733 129.644 34.8613 128.84 34.8613 127.8C34.8613 126.76 34.6733 125.956 34.2973 125.388C33.9293 124.812 33.4053 124.524 32.7253 124.524C32.0453 124.524 31.5213 124.808 31.1533 125.376C30.7853 125.944 30.6013 126.752 30.6013 127.8C30.6013 128.84 30.7853 129.644 31.1533 130.212ZM38.8255 127.164C38.2815 127.164 37.8295 126.984 37.4695 126.624C37.1095 126.264 36.9295 125.824 36.9295 125.304C36.9295 124.792 37.1095 124.356 37.4695 123.996C37.8375 123.628 38.2895 123.444 38.8255 123.444C39.3695 123.444 39.8215 123.624 40.1815 123.984C40.5415 124.344 40.7215 124.784 40.7215 125.304C40.7215 125.824 40.5415 126.264 40.1815 126.624C39.8295 126.984 39.3775 127.164 38.8255 127.164ZM38.1295 126.012C38.3135 126.196 38.5455 126.288 38.8255 126.288C39.1055 126.288 39.3335 126.192 39.5095 126C39.6935 125.808 39.7855 125.576 39.7855 125.304C39.7855 125.032 39.6935 124.804 39.5095 124.62C39.3335 124.428 39.1055 124.332 38.8255 124.332C38.5455 124.332 38.3135 124.428 38.1295 124.62C37.9535 124.804 37.8655 125.032 37.8655 125.304C37.8655 125.584 37.9535 125.82 38.1295 126.012ZM37.4935 130.812L43.0735 124.572L43.6615 124.896L38.0695 131.148L37.4935 130.812ZM43.8055 131.604C43.4455 131.964 42.9935 132.144 42.4495 132.144C41.9055 132.144 41.4535 131.964 41.0935 131.604C40.7335 131.244 40.5535 130.804 40.5535 130.284C40.5535 129.764 40.7335 129.324 41.0935 128.964C41.4535 128.604 41.9055 128.424 42.4495 128.424C42.9935 128.424 43.4455 128.604 43.8055 128.964C44.1655 129.324 44.3455 129.764 44.3455 130.284C44.3455 130.804 44.1655 131.244 43.8055 131.604ZM41.7535 130.98C41.9375 131.164 42.1695 131.256 42.4495 131.256C42.7295 131.256 42.9575 131.164 43.1335 130.98C43.3175 130.788 43.4095 130.556 43.4095 130.284C43.4095 130.012 43.3175 129.784 43.1335 129.6C42.9575 129.408 42.7295 129.312 42.4495 129.312C42.1695 129.312 41.9375 129.408 41.7535 129.6C41.5775 129.784 41.4895 130.012 41.4895 130.284C41.4895 130.556 41.5775 130.788 41.7535 130.98Z" fill="#979797"/>
<path d="M23.1664 73V72.088L26.1304 69.064C26.9224 68.272 27.3184 67.592 27.3184 67.024C27.3184 66.552 27.1744 66.184 26.8864 65.92C26.5984 65.656 26.2464 65.524 25.8304 65.524C25.0384 65.524 24.4624 65.9 24.1024 66.652L23.1664 66.1C23.4304 65.556 23.7944 65.144 24.2584 64.864C24.7304 64.584 25.2504 64.444 25.8184 64.444C26.5224 64.444 27.1344 64.676 27.6544 65.14C28.1744 65.604 28.4344 66.228 28.4344 67.012C28.4344 67.86 27.9344 68.784 26.9344 69.784L24.7864 71.92H28.5904V73H23.1664ZM35.1133 71.968C34.5453 72.76 33.7493 73.156 32.7253 73.156C31.7013 73.156 30.9053 72.76 30.3373 71.968C29.7693 71.176 29.4853 70.12 29.4853 68.8C29.4853 67.48 29.7693 66.424 30.3373 65.632C30.9053 64.84 31.7013 64.444 32.7253 64.444C33.7493 64.444 34.5453 64.84 35.1133 65.632C35.6813 66.424 35.9653 67.48 35.9653 68.8C35.9653 70.12 35.6813 71.176 35.1133 71.968ZM31.1533 71.212C31.5213 71.78 32.0453 72.064 32.7253 72.064C33.4053 72.064 33.9293 71.78 34.2973 71.212C34.6733 70.644 34.8613 69.84 34.8613 68.8C34.8613 67.76 34.6733 66.956 34.2973 66.388C33.9293 65.812 33.4053 65.524 32.7253 65.524C32.0453 65.524 31.5213 65.808 31.1533 66.376C30.7853 66.944 30.6013 67.752 30.6013 68.8C30.6013 69.84 30.7853 70.644 31.1533 71.212ZM38.8255 68.164C38.2815 68.164 37.8295 67.984 37.4695 67.624C37.1095 67.264 36.9295 66.824 36.9295 66.304C36.9295 65.792 37.1095 65.356 37.4695 64.996C37.8375 64.628 38.2895 64.444 38.8255 64.444C39.3695 64.444 39.8215 64.624 40.1815 64.984C40.5415 65.344 40.7215 65.784 40.7215 66.304C40.7215 66.824 40.5415 67.264 40.1815 67.624C39.8295 67.984 39.3775 68.164 38.8255 68.164ZM38.1295 67.012C38.3135 67.196 38.5455 67.288 38.8255 67.288C39.1055 67.288 39.3335 67.192 39.5095 67C39.6935 66.808 39.7855 66.576 39.7855 66.304C39.7855 66.032 39.6935 65.804 39.5095 65.62C39.3335 65.428 39.1055 65.332 38.8255 65.332C38.5455 65.332 38.3135 65.428 38.1295 65.62C37.9535 65.804 37.8655 66.032 37.8655 66.304C37.8655 66.584 37.9535 66.82 38.1295 67.012ZM37.4935 71.812L43.0735 65.572L43.6615 65.896L38.0695 72.148L37.4935 71.812ZM43.8055 72.604C43.4455 72.964 42.9935 73.144 42.4495 73.144C41.9055 73.144 41.4535 72.964 41.0935 72.604C40.7335 72.244 40.5535 71.804 40.5535 71.284C40.5535 70.764 40.7335 70.324 41.0935 69.964C41.4535 69.604 41.9055 69.424 42.4495 69.424C42.9935 69.424 43.4455 69.604 43.8055 69.964C44.1655 70.324 44.3455 70.764 44.3455 71.284C44.3455 71.804 44.1655 72.244 43.8055 72.604ZM41.7535 71.98C41.9375 72.164 42.1695 72.256 42.4495 72.256C42.7295 72.256 42.9575 72.164 43.1335 71.98C43.3175 71.788 43.4095 71.556 43.4095 71.284C43.4095 71.012 43.3175 70.784 43.1335 70.6C42.9575 70.408 42.7295 70.312 42.4495 70.312C42.1695 70.312 41.9375 70.408 41.7535 70.6C41.5775 70.784 41.4895 71.012 41.4895 71.284C41.4895 71.556 41.5775 71.788 41.7535 71.98Z" fill="#979797"/>
<path d="M28.6924 12.36V13.404H27.6724V15H26.5564V13.404H22.2724V12.36L25.2844 6.6H26.4844L23.4724 12.36H26.5564V9.984H27.6724V12.36H28.6924ZM35.1133 13.968C34.5453 14.76 33.7493 15.156 32.7253 15.156C31.7013 15.156 30.9053 14.76 30.3373 13.968C29.7693 13.176 29.4853 12.12 29.4853 10.8C29.4853 9.48 29.7693 8.424 30.3373 7.632C30.9053 6.84 31.7013 6.444 32.7253 6.444C33.7493 6.444 34.5453 6.84 35.1133 7.632C35.6813 8.424 35.9653 9.48 35.9653 10.8C35.9653 12.12 35.6813 13.176 35.1133 13.968ZM31.1533 13.212C31.5213 13.78 32.0453 14.064 32.7253 14.064C33.4053 14.064 33.9293 13.78 34.2973 13.212C34.6733 12.644 34.8613 11.84 34.8613 10.8C34.8613 9.76 34.6733 8.956 34.2973 8.388C33.9293 7.812 33.4053 7.524 32.7253 7.524C32.0453 7.524 31.5213 7.808 31.1533 8.376C30.7853 8.944 30.6013 9.752 30.6013 10.8C30.6013 11.84 30.7853 12.644 31.1533 13.212ZM38.8255 10.164C38.2815 10.164 37.8295 9.984 37.4695 9.624C37.1095 9.264 36.9295 8.824 36.9295 8.304C36.9295 7.792 37.1095 7.356 37.4695 6.996C37.8375 6.628 38.2895 6.444 38.8255 6.444C39.3695 6.444 39.8215 6.624 40.1815 6.984C40.5415 7.344 40.7215 7.784 40.7215 8.304C40.7215 8.824 40.5415 9.264 40.1815 9.624C39.8295 9.984 39.3775 10.164 38.8255 10.164ZM38.1295 9.012C38.3135 9.196 38.5455 9.288 38.8255 9.288C39.1055 9.288 39.3335 9.192 39.5095 9C39.6935 8.808 39.7855 8.576 39.7855 8.304C39.7855 8.032 39.6935 7.804 39.5095 7.62C39.3335 7.428 39.1055 7.332 38.8255 7.332C38.5455 7.332 38.3135 7.428 38.1295 7.62C37.9535 7.804 37.8655 8.032 37.8655 8.304C37.8655 8.584 37.9535 8.82 38.1295 9.012ZM37.4935 13.812L43.0735 7.572L43.6615 7.896L38.0695 14.148L37.4935 13.812ZM43.8055 14.604C43.4455 14.964 42.9935 15.144 42.4495 15.144C41.9055 15.144 41.4535 14.964 41.0935 14.604C40.7335 14.244 40.5535 13.804 40.5535 13.284C40.5535 12.764 40.7335 12.324 41.0935 11.964C41.4535 11.604 41.9055 11.424 42.4495 11.424C42.9935 11.424 43.4455 11.604 43.8055 11.964C44.1655 12.324 44.3455 12.764 44.3455 13.284C44.3455 13.804 44.1655 14.244 43.8055 14.604ZM41.7535 13.98C41.9375 14.164 42.1695 14.256 42.4495 14.256C42.7295 14.256 42.9575 14.164 43.1335 13.98C43.3175 13.788 43.4095 13.556 43.4095 13.284C43.4095 13.012 43.3175 12.784 43.1335 12.6C42.9575 12.408 42.7295 12.312 42.4495 12.312C42.1695 12.312 41.9375 12.408 41.7535 12.6C41.5775 12.784 41.4895 13.012 41.4895 13.284C41.4895 13.556 41.5775 13.788 41.7535 13.98Z" fill="#979797"/>
<path d="M50 11H630.936" stroke="#EFF3F9"/>
<path d="M52.2509 69.7026H626.337" stroke="#EFF3F9"/>
<path d="M89.7136 144.189V145.317L85.9456 146.865L89.7136 148.401V149.529L84.7576 147.369V146.349L89.7136 144.189ZM95.7549 142.665H96.7149V151.065H95.6109V143.865L93.8229 144.393L93.5469 143.433L95.7549 142.665ZM102.552 146.721C102.96 146.929 103.28 147.209 103.512 147.561C103.744 147.913 103.86 148.313 103.86 148.761C103.86 149.529 103.592 150.133 103.056 150.573C102.52 151.005 101.828 151.221 100.98 151.221C100.14 151.221 99.4522 151.005 98.9162 150.573C98.3802 150.133 98.1122 149.529 98.1122 148.761C98.1122 148.313 98.2282 147.913 98.4602 147.561C98.6922 147.209 99.0122 146.929 99.4202 146.721C98.7322 146.289 98.3882 145.677 98.3882 144.885C98.3882 144.125 98.6402 143.541 99.1442 143.133C99.6562 142.717 100.268 142.509 100.98 142.509C101.7 142.509 102.312 142.717 102.816 143.133C103.328 143.541 103.584 144.125 103.584 144.885C103.584 145.677 103.24 146.289 102.552 146.721ZM100.98 143.577C100.556 143.577 100.2 143.689 99.9122 143.913C99.6322 144.137 99.4922 144.469 99.4922 144.909C99.4922 145.333 99.6362 145.665 99.9242 145.905C100.212 146.137 100.564 146.253 100.98 146.253C101.396 146.253 101.748 146.137 102.036 145.905C102.324 145.665 102.468 145.333 102.468 144.909C102.468 144.469 102.328 144.137 102.048 143.913C101.768 143.689 101.412 143.577 100.98 143.577ZM100.98 150.153C101.516 150.153 101.944 150.029 102.264 149.781C102.592 149.525 102.756 149.161 102.756 148.689C102.756 148.225 102.592 147.869 102.264 147.621C101.944 147.365 101.516 147.237 100.98 147.237C100.452 147.237 100.024 147.365 99.6962 147.621C99.3762 147.869 99.2162 148.225 99.2162 148.689C99.2162 149.161 99.3762 149.525 99.6962 149.781C100.024 150.029 100.452 150.153 100.98 150.153Z" fill="#979797"/>
<rect x="75.6779" y="126.536" width="21.5272" height="1.63499" fill="#E786D7"/>
<rect x="97.2051" y="126.536" width="21.5272" height="1.63499" fill="#7F7FD5"/>
<path d="M157.316 143.869H158.276V152.269H157.172V145.069L155.384 145.597L155.108 144.637L157.316 143.869ZM164.113 147.925C164.521 148.133 164.841 148.413 165.073 148.765C165.305 149.117 165.421 149.517 165.421 149.965C165.421 150.733 165.153 151.337 164.617 151.777C164.081 152.209 163.389 152.425 162.541 152.425C161.701 152.425 161.013 152.209 160.477 151.777C159.941 151.337 159.673 150.733 159.673 149.965C159.673 149.517 159.789 149.117 160.021 148.765C160.253 148.413 160.573 148.133 160.981 147.925C160.293 147.493 159.949 146.881 159.949 146.089C159.949 145.329 160.201 144.745 160.705 144.337C161.217 143.921 161.829 143.713 162.541 143.713C163.261 143.713 163.873 143.921 164.377 144.337C164.889 144.745 165.145 145.329 165.145 146.089C165.145 146.881 164.801 147.493 164.113 147.925ZM162.541 144.781C162.117 144.781 161.761 144.893 161.473 145.117C161.193 145.341 161.053 145.673 161.053 146.113C161.053 146.537 161.197 146.869 161.485 147.109C161.773 147.341 162.125 147.457 162.541 147.457C162.957 147.457 163.309 147.341 163.597 147.109C163.885 146.869 164.029 146.537 164.029 146.113C164.029 145.673 163.889 145.341 163.609 145.117C163.329 144.893 162.973 144.781 162.541 144.781ZM162.541 151.357C163.077 151.357 163.505 151.233 163.825 150.985C164.153 150.729 164.317 150.365 164.317 149.893C164.317 149.429 164.153 149.073 163.825 148.825C163.505 148.569 163.077 148.441 162.541 148.441C162.013 148.441 161.585 148.569 161.257 148.825C160.937 149.073 160.777 149.429 160.777 149.893C160.777 150.365 160.937 150.729 161.257 150.985C161.585 151.233 162.013 151.357 162.541 151.357ZM166.774 149.089V148.081H171.154V149.089H166.774ZM172.482 152.269V151.357L175.446 148.333C176.238 147.541 176.634 146.861 176.634 146.293C176.634 145.821 176.49 145.453 176.202 145.189C175.914 144.925 175.562 144.793 175.146 144.793C174.354 144.793 173.778 145.169 173.418 145.921L172.482 145.369C172.746 144.825 173.11 144.413 173.574 144.133C174.046 143.853 174.566 143.713 175.134 143.713C175.838 143.713 176.45 143.945 176.97 144.409C177.49 144.873 177.75 145.497 177.75 146.281C177.75 147.129 177.25 148.053 176.25 149.053L174.102 151.189H177.906V152.269H172.482ZM180.695 143.869H181.655V152.269H180.551V145.069L178.763 145.597L178.487 144.637L180.695 143.869Z" fill="#979797"/>
<rect x="147.241" y="127.61" width="21.5272" height="1.63499" fill="#E786D7"/>
<path d="M168.768 75.5376C168.768 72.7762 171.007 70.5376 173.768 70.5376H185.295C188.057 70.5376 190.295 72.7762 190.295 75.5376V129.245H168.768V75.5376Z" fill="#7F7FD5"/>
<path d="M223.862 151.139V150.227L226.826 147.203C227.618 146.411 228.014 145.731 228.014 145.163C228.014 144.691 227.87 144.323 227.582 144.059C227.294 143.795 226.942 143.663 226.526 143.663C225.734 143.663 225.158 144.039 224.798 144.791L223.862 144.239C224.126 143.695 224.49 143.283 224.954 143.003C225.426 142.723 225.946 142.583 226.514 142.583C227.218 142.583 227.83 142.815 228.35 143.279C228.87 143.743 229.13 144.367 229.13 145.151C229.13 145.999 228.63 146.923 227.63 147.923L225.482 150.059H229.286V151.139H223.862ZM232.076 142.739H233.036V151.139H231.932V143.939L230.144 144.467L229.868 143.507L232.076 142.739ZM234.877 147.959V146.951H239.257V147.959H234.877ZM240.585 151.139V150.227L243.549 147.203C244.341 146.411 244.737 145.731 244.737 145.163C244.737 144.691 244.593 144.323 244.305 144.059C244.017 143.795 243.665 143.663 243.249 143.663C242.457 143.663 241.881 144.039 241.521 144.791L240.585 144.239C240.849 143.695 241.213 143.283 241.677 143.003C242.149 142.723 242.669 142.583 243.237 142.583C243.941 142.583 244.553 142.815 245.073 143.279C245.593 143.743 245.853 144.367 245.853 145.151C245.853 145.999 245.353 146.923 244.353 147.923L242.205 150.059H246.009V151.139H240.585ZM252.978 148.499V149.543H251.958V151.139H250.842V149.543H246.558V148.499L249.57 142.739H250.77L247.758 148.499H250.842V146.123H251.958V148.499H252.978Z" fill="#979797"/>
<rect x="216.804" y="126.162" width="21.5272" height="1.63499" fill="#E786D7"/>
<path d="M238.331 74.5376C238.331 71.7762 240.569 69.5376 243.331 69.5376H254.858C257.619 69.5376 259.858 71.7762 259.858 74.5376V127.796H238.331V74.5376Z" fill="#7F7FD5"/>
<path d="M294.711 151.74V150.828L297.675 147.804C298.467 147.012 298.863 146.332 298.863 145.764C298.863 145.292 298.719 144.924 298.431 144.66C298.143 144.396 297.791 144.264 297.375 144.264C296.583 144.264 296.007 144.64 295.647 145.392L294.711 144.84C294.975 144.296 295.339 143.884 295.803 143.604C296.275 143.324 296.795 143.184 297.363 143.184C298.067 143.184 298.679 143.416 299.199 143.88C299.719 144.344 299.979 144.968 299.979 145.752C299.979 146.6 299.479 147.524 298.479 148.524L296.331 150.66H300.135V151.74H294.711ZM307.104 149.1V150.144H306.084V151.74H304.968V150.144H300.684V149.1L303.696 143.34H304.896L301.884 149.1H304.968V146.724H306.084V149.1H307.104ZM308.257 148.56V147.552H312.637V148.56H308.257ZM313.965 151.74V150.828L316.929 147.804C317.721 147.012 318.117 146.332 318.117 145.764C318.117 145.292 317.973 144.924 317.685 144.66C317.397 144.396 317.045 144.264 316.629 144.264C315.837 144.264 315.261 144.64 314.901 145.392L313.965 144.84C314.229 144.296 314.593 143.884 315.057 143.604C315.529 143.324 316.049 143.184 316.617 143.184C317.321 143.184 317.933 143.416 318.453 143.88C318.973 144.344 319.233 144.968 319.233 145.752C319.233 146.6 318.733 147.524 317.733 148.524L315.585 150.66H319.389V151.74H313.965ZM319.843 143.34H325.087V144.336L322.027 151.74H320.863L323.899 144.396H319.843V143.34Z" fill="#979797"/>
<path d="M288.367 33.5388C288.367 30.7773 290.606 28.5388 293.367 28.5388H304.894C307.656 28.5388 309.894 30.7773 309.894 33.5388V128.715H288.367V33.5388Z" fill="#E786D7"/>
<path d="M309.898 74.5376C309.898 71.7762 312.136 69.5376 314.898 69.5376H326.905C329.666 69.5376 331.905 71.7762 331.905 74.5376V128.536H309.898V74.5376Z" fill="#7F7FD5"/>
<path d="M364.004 151.139V150.227L366.968 147.203C367.76 146.411 368.156 145.731 368.156 145.163C368.156 144.691 368.012 144.323 367.724 144.059C367.436 143.795 367.084 143.663 366.668 143.663C365.876 143.663 365.3 144.039 364.94 144.791L364.004 144.239C364.268 143.695 364.632 143.283 365.096 143.003C365.568 142.723 366.088 142.583 366.656 142.583C367.36 142.583 367.972 142.815 368.492 143.279C369.012 143.743 369.272 144.367 369.272 145.151C369.272 145.999 368.772 146.923 367.772 147.923L365.624 150.059H369.428V151.139H364.004ZM369.882 142.739H375.126V143.735L372.066 151.139H370.902L373.938 143.795H369.882V142.739ZM376.085 147.959V146.951H380.465V147.959H376.085ZM385.153 146.183C385.793 146.303 386.317 146.579 386.725 147.011C387.133 147.443 387.337 147.991 387.337 148.655C387.337 149.471 387.057 150.115 386.497 150.587C385.937 151.059 385.257 151.295 384.457 151.295C383.817 151.295 383.249 151.151 382.753 150.863C382.257 150.567 381.905 150.143 381.697 149.591L382.633 149.039C382.881 149.815 383.489 150.203 384.457 150.203C384.977 150.203 385.401 150.067 385.729 149.795C386.057 149.523 386.221 149.143 386.221 148.655C386.221 148.167 386.057 147.787 385.729 147.515C385.401 147.235 384.977 147.095 384.457 147.095H384.169L383.725 146.411L385.669 143.783H381.937V142.739H386.977V143.723L385.153 146.183ZM393.951 150.107C393.383 150.899 392.587 151.295 391.563 151.295C390.539 151.295 389.743 150.899 389.175 150.107C388.607 149.315 388.323 148.259 388.323 146.939C388.323 145.619 388.607 144.563 389.175 143.771C389.743 142.979 390.539 142.583 391.563 142.583C392.587 142.583 393.383 142.979 393.951 143.771C394.519 144.563 394.803 145.619 394.803 146.939C394.803 148.259 394.519 149.315 393.951 150.107ZM389.991 149.351C390.359 149.919 390.883 150.203 391.563 150.203C392.243 150.203 392.767 149.919 393.135 149.351C393.511 148.783 393.699 147.979 393.699 146.939C393.699 145.899 393.511 145.095 393.135 144.527C392.767 143.951 392.243 143.663 391.563 143.663C390.883 143.663 390.359 143.947 389.991 144.515C389.623 145.083 389.439 145.891 389.439 146.939C389.439 147.979 389.623 148.783 389.991 149.351Z" fill="#979797"/>
<path d="M357.93 74.5376C357.93 71.7762 360.168 69.5376 362.93 69.5376H374.457C377.218 69.5376 379.457 71.7762 379.457 74.5376V128.245H357.93V74.5376Z" fill="#E786D7"/>
<rect x="379.457" y="125.792" width="21.5272" height="1.63499" fill="#7F7FD5"/>
<path d="M437.294 146.109C437.934 146.229 438.458 146.505 438.866 146.937C439.274 147.369 439.478 147.917 439.478 148.581C439.478 149.397 439.198 150.041 438.638 150.513C438.078 150.985 437.398 151.221 436.598 151.221C435.958 151.221 435.39 151.077 434.894 150.789C434.398 150.493 434.046 150.069 433.838 149.517L434.774 148.965C435.022 149.741 435.63 150.129 436.598 150.129C437.118 150.129 437.542 149.993 437.87 149.721C438.198 149.449 438.362 149.069 438.362 148.581C438.362 148.093 438.198 147.713 437.87 147.441C437.542 147.161 437.118 147.021 436.598 147.021H436.31L435.866 146.337L437.81 143.709H434.078V142.665H439.118V143.649L437.294 146.109ZM446.092 150.033C445.524 150.825 444.728 151.221 443.704 151.221C442.68 151.221 441.884 150.825 441.316 150.033C440.748 149.241 440.464 148.185 440.464 146.865C440.464 145.545 440.748 144.489 441.316 143.697C441.884 142.905 442.68 142.509 443.704 142.509C444.728 142.509 445.524 142.905 446.092 143.697C446.66 144.489 446.944 145.545 446.944 146.865C446.944 148.185 446.66 149.241 446.092 150.033ZM442.132 149.277C442.5 149.845 443.024 150.129 443.704 150.129C444.384 150.129 444.908 149.845 445.276 149.277C445.652 148.709 445.84 147.905 445.84 146.865C445.84 145.825 445.652 145.021 445.276 144.453C444.908 143.877 444.384 143.589 443.704 143.589C443.024 143.589 442.5 143.873 442.132 144.441C441.764 145.009 441.58 145.817 441.58 146.865C441.58 147.905 441.764 148.709 442.132 149.277ZM448.383 147.885V146.877H452.763V147.885H448.383ZM457.451 146.109C458.091 146.229 458.615 146.505 459.023 146.937C459.431 147.369 459.635 147.917 459.635 148.581C459.635 149.397 459.355 150.041 458.795 150.513C458.235 150.985 457.555 151.221 456.755 151.221C456.115 151.221 455.547 151.077 455.051 150.789C454.555 150.493 454.203 150.069 453.995 149.517L454.931 148.965C455.179 149.741 455.787 150.129 456.755 150.129C457.275 150.129 457.699 149.993 458.027 149.721C458.355 149.449 458.519 149.069 458.519 148.581C458.519 148.093 458.355 147.713 458.027 147.441C457.699 147.161 457.275 147.021 456.755 147.021H456.467L456.023 146.337L457.967 143.709H454.235V142.665H459.275V143.649L457.451 146.109ZM463.262 145.941C464.054 145.941 464.722 146.177 465.266 146.649C465.818 147.113 466.094 147.757 466.094 148.581C466.094 149.397 465.814 150.041 465.254 150.513C464.694 150.985 464.014 151.221 463.214 151.221C462.574 151.221 462.002 151.069 461.498 150.765C460.994 150.453 460.642 150.005 460.442 149.421L461.39 148.881C461.502 149.289 461.718 149.601 462.038 149.817C462.358 150.025 462.75 150.129 463.214 150.129C463.742 150.129 464.17 149.993 464.498 149.721C464.826 149.449 464.99 149.069 464.99 148.581C464.99 148.093 464.826 147.713 464.498 147.441C464.17 147.161 463.75 147.021 463.238 147.021H460.862L461.174 142.665H465.77V143.709H462.182L462.038 145.941H463.262Z" fill="#979797"/>
<rect x="428.493" y="126.536" width="21.5272" height="1.63499" fill="#E786D7"/>
<rect x="450.02" y="126.536" width="21.5272" height="1.63499" fill="#7F7FD5"/>
<path d="M510.045 146.348C510.685 146.468 511.209 146.744 511.617 147.176C512.025 147.608 512.229 148.156 512.229 148.82C512.229 149.636 511.949 150.28 511.389 150.752C510.829 151.224 510.149 151.46 509.349 151.46C508.709 151.46 508.141 151.316 507.645 151.028C507.149 150.732 506.797 150.308 506.589 149.756L507.525 149.204C507.773 149.98 508.381 150.368 509.349 150.368C509.869 150.368 510.293 150.232 510.621 149.96C510.949 149.688 511.113 149.308 511.113 148.82C511.113 148.332 510.949 147.952 510.621 147.68C510.293 147.4 509.869 147.26 509.349 147.26H509.061L508.617 146.576L510.561 143.948H506.829V142.904H511.869V143.888L510.045 146.348ZM515.857 146.18C516.649 146.18 517.317 146.416 517.861 146.888C518.413 147.352 518.689 147.996 518.689 148.82C518.689 149.636 518.409 150.28 517.849 150.752C517.289 151.224 516.609 151.46 515.809 151.46C515.169 151.46 514.597 151.308 514.093 151.004C513.589 150.692 513.237 150.244 513.037 149.66L513.985 149.12C514.097 149.528 514.313 149.84 514.633 150.056C514.953 150.264 515.345 150.368 515.809 150.368C516.337 150.368 516.765 150.232 517.093 149.96C517.421 149.688 517.585 149.308 517.585 148.82C517.585 148.332 517.421 147.952 517.093 147.68C516.765 147.4 516.345 147.26 515.833 147.26H513.457L513.769 142.904H518.365V143.948H514.777L514.633 146.18H515.857ZM520.032 148.124V147.116H524.412V148.124H520.032ZM532.016 148.664V149.708H530.996V151.304H529.88V149.708H525.596V148.664L528.608 142.904H529.808L526.796 148.664H529.88V146.288H530.996V148.664H532.016ZM538.437 150.272C537.869 151.064 537.073 151.46 536.049 151.46C535.025 151.46 534.229 151.064 533.661 150.272C533.093 149.48 532.809 148.424 532.809 147.104C532.809 145.784 533.093 144.728 533.661 143.936C534.229 143.144 535.025 142.748 536.049 142.748C537.073 142.748 537.869 143.144 538.437 143.936C539.005 144.728 539.289 145.784 539.289 147.104C539.289 148.424 539.005 149.48 538.437 150.272ZM534.477 149.516C534.845 150.084 535.369 150.368 536.049 150.368C536.729 150.368 537.253 150.084 537.621 149.516C537.997 148.948 538.185 148.144 538.185 147.104C538.185 146.064 537.997 145.26 537.621 144.692C537.253 144.116 536.729 143.828 536.049 143.828C535.369 143.828 534.845 144.112 534.477 144.68C534.109 145.248 533.925 146.056 533.925 147.104C533.925 148.144 534.109 148.948 534.477 149.516Z" fill="#979797"/>
<path d="M498.055 103.537C498.055 100.775 500.294 98.5368 503.055 98.5368H514.582C517.344 98.5368 519.582 100.775 519.582 103.537V128.41H498.055V103.537Z" fill="#E786D7"/>
<rect x="521.583" y="126.775" width="21.5272" height="1.63499" fill="#7F7FD5"/>
<path d="M581.863 145.637L586.819 147.797V148.817L581.863 150.977V149.849L585.631 148.313L581.863 146.765V145.637ZM594.193 149.873V150.917H593.173V152.513H592.057V150.917H587.773V149.873L590.785 144.113H591.985L588.973 149.873H592.057V147.497H593.173V149.873H594.193ZM600.614 151.481C600.046 152.273 599.25 152.669 598.226 152.669C597.202 152.669 596.406 152.273 595.838 151.481C595.27 150.689 594.986 149.633 594.986 148.313C594.986 146.993 595.27 145.937 595.838 145.145C596.406 144.353 597.202 143.957 598.226 143.957C599.25 143.957 600.046 144.353 600.614 145.145C601.182 145.937 601.466 146.993 601.466 148.313C601.466 149.633 601.182 150.689 600.614 151.481ZM596.654 150.725C597.022 151.293 597.546 151.577 598.226 151.577C598.906 151.577 599.43 151.293 599.798 150.725C600.174 150.157 600.362 149.353 600.362 148.313C600.362 147.273 600.174 146.469 599.798 145.901C599.43 145.325 598.906 145.037 598.226 145.037C597.546 145.037 597.022 145.321 596.654 145.889C596.286 146.457 596.102 147.265 596.102 148.313C596.102 149.353 596.286 150.157 596.654 150.725Z" fill="#979797"/>
<rect x="573.077" y="126.985" width="21.5272" height="1.63499" fill="#E786D7"/>
<path d="M594.604 110.537C594.604 107.775 596.842 105.537 599.604 105.537H611.131C613.892 105.537 616.131 107.775 616.131 110.537V128.619H594.604V110.537Z" fill="#7F7FD5"/>
</svg>
